<svg width="57" height="57" viewBox="0 0 57 57" fill="none" xmlns="http://www.w3.org/2000/svg">
<path fill-rule="evenodd" clip-rule="evenodd" d="M43.4179 0C51.6562 0 57 5.34375 57 13.5821V43.4179C57 51.6562 51.6562 57 43.4179 57H13.5821C5.34375 57 0 51.6562 0 43.4179V13.5821C0 5.34375 5.34375 0 13.5821 0H43.4179Z" fill="#252525"/>
<g clip-path="url(#clip0_1248_19)">
<path d="M22.0096 47.5016C25.5041 47.5016 28.3429 44.6658 28.3429 41.1683V34.835H22.0096C18.5151 34.835 15.6763 37.6707 15.6763 41.1683C15.6763 44.6658 18.5151 47.5016 22.0096 47.5016Z" fill="#0ACF83"/>
<path d="M15.6763 28.5023C15.6763 25.0078 18.5151 22.1689 22.0096 22.1689H28.3429V34.8356H22.0096C18.5151 34.8356 15.6763 31.9998 15.6763 28.5023Z" fill="#A259FF"/>
<path d="M15.6763 15.8353C15.6763 12.3408 18.5151 9.50195 22.0096 9.50195H28.3429V22.1686H22.0096C18.5151 22.1686 15.6763 19.3328 15.6763 15.8353Z" fill="#F24E1E"/>
<path d="M28.3428 9.50195H34.6761C38.1706 9.50195 41.0094 12.3408 41.0094 15.8353C41.0094 19.3328 38.1737 22.1686 34.6761 22.1686H28.3428V9.50195Z" fill="#FF7262"/>
<path d="M41.0094 28.5023C41.0094 31.9998 38.1737 34.8356 34.6761 34.8356C31.1785 34.8356 28.3428 31.9998 28.3428 28.5023C28.3428 25.0078 31.1785 22.1689 34.6761 22.1689C38.1737 22.1689 41.0094 25.0078 41.0094 28.5023Z" fill="#1ABCFE"/>
</g>
<defs>
<clipPath id="clip0_1248_19">
<rect width="25.3333" height="38" fill="white" transform="translate(15.6763 9.50195)"/>
</clipPath>
</defs>
</svg>
