<svg width="57" height="57" viewBox="0 0 57 57" fill="none" xmlns="http://www.w3.org/2000/svg">
<path fill-rule="evenodd" clip-rule="evenodd" d="M43.4179 0C51.6562 0 57 5.34375 57 13.5821V43.4179C57 51.6562 51.6562 57 43.4179 57H13.5821C5.34375 57 0 51.6562 0 43.4179V13.5821C0 5.34375 5.34375 0 13.5821 0H43.4179Z" fill="#252525"/>
<path d="M28.4961 9.97754C18.0058 9.97754 9.49855 18.518 9.49855 29.0535C9.49426 33.0519 10.7466 36.9506 13.0787 40.1985C15.4107 43.4464 18.7045 45.8793 22.4945 47.1534C23.4445 47.3291 23.7913 46.7401 23.7913 46.2343C23.7913 45.7806 23.7747 44.5813 23.7652 42.99C18.4808 44.1419 17.3645 40.4321 17.3645 40.4321C16.5024 38.2281 15.2555 37.6415 15.2555 37.6415C13.5289 36.4588 15.3838 36.4825 15.3838 36.4825C17.2909 36.6179 18.2932 38.449 18.2932 38.449C19.9889 41.3631 22.7415 40.5224 23.8245 40.0331C23.9955 38.8005 24.4872 37.9598 25.031 37.4824C20.813 37.0003 16.3765 35.3639 16.3765 28.056C16.3765 25.9731 17.1175 24.2703 18.3335 22.9355C18.1364 22.4534 17.4857 20.513 18.5188 17.8887C18.5188 17.8887 20.1148 17.3757 23.7438 19.8433C25.2941 19.4196 26.8938 19.204 28.5009 19.202C30.1081 19.2052 31.7078 19.4217 33.258 19.8457C36.8846 17.378 38.4783 17.891 38.4783 17.891C39.5138 20.5178 38.863 22.4558 38.6683 22.9379C39.8866 24.2727 40.6205 25.9755 40.6205 28.0584C40.6205 35.3853 36.1793 36.9979 31.947 37.4705C32.6286 38.0595 33.2366 39.2233 33.2366 41.0021C33.2366 43.5529 33.2129 45.6096 33.2129 46.2343C33.2129 46.7449 33.5549 47.3386 34.5191 47.151C38.3055 45.8739 41.5952 43.4401 43.924 40.193C46.2528 36.9459 47.5031 33.0494 47.4985 29.0535C47.4985 18.518 38.9913 9.97754 28.4961 9.97754Z" fill="white"/>
</svg>
