<svg width="57" height="57" viewBox="0 0 57 57" fill="none" xmlns="http://www.w3.org/2000/svg">
<path fill-rule="evenodd" clip-rule="evenodd" d="M12.8723 0H44.1277C47.5386 0.00983669 50.8071 1.3755 53.219 3.79865C55.6309 6.2218 56.9902 9.50547 57 12.9323V44.0724C56.989 47.4984 55.6291 50.7809 53.2173 53.203C50.8056 55.6251 47.5378 56.9902 44.1277 57H12.8723C9.46218 56.9902 6.19444 55.6251 3.78266 53.203C1.37088 50.7809 0.0110141 47.4984 0 44.0724V12.9323C0.00979106 9.50547 1.36912 6.2218 3.78103 3.79865C6.19294 1.3755 9.46138 0.00983669 12.8723 0Z" fill="#0A66C2"/>
<path fill-rule="evenodd" clip-rule="evenodd" d="M22.8176 22.0969H30.0215V25.8251H30.1236C31.1301 24.0169 33.5794 22.0969 37.2393 22.0969C44.8421 22.0969 46.2476 26.8504 46.2476 33.0346V46.1114H38.7376V34.4886C38.7376 31.8276 38.6819 28.4023 34.8318 28.4023C30.9817 28.4023 30.323 31.2963 30.323 34.2975V46.1347H22.8176V22.0969ZM18.5547 14.8175C18.5547 15.5936 18.3256 16.3523 17.8965 16.9976C17.4673 17.6429 16.8573 18.1458 16.1436 18.4428C15.4299 18.7398 14.6446 18.8175 13.887 18.6661C13.1293 18.5147 12.4334 18.141 11.8871 17.5922C11.3409 17.0434 10.9689 16.3442 10.8182 15.583C10.6675 14.8219 10.7449 14.0329 11.0405 13.3159C11.3361 12.5989 11.8367 11.986 12.479 11.5549C13.1213 11.1237 13.8764 10.8936 14.6489 10.8936C15.6844 10.8948 16.6772 11.3086 17.4094 12.0442C18.1416 12.7798 18.5535 13.7772 18.5547 14.8175ZM10.7524 22.0969H18.5547V46.1114H10.7524V22.0969Z" fill="white"/>
</svg>
