<svg width="24" height="24" viewBox="0 0 24 24" fill="none" xmlns="http://www.w3.org/2000/svg">
<path d="M21.3998 1.59961C21.9521 1.59961 22.3998 2.04732 22.3998 2.59961V21.3994C22.3998 21.9517 21.9521 22.3994 21.3998 22.3994H2.59998C2.04769 22.3994 1.59998 21.9517 1.59998 21.3994V2.59961C1.59998 2.04732 2.04769 1.59961 2.59998 1.59961H21.3998ZM15.4789 9.36035C14.8718 9.33048 14.2674 9.45772 13.726 9.72949C13.3147 9.93591 12.8841 10.4083 12.5521 11.2295H12.4672V9.60059H9.59998V19.207H12.6498V14.0977C12.6057 13.5743 12.773 12.8976 13.1156 12.4951C13.4582 12.0927 13.9491 11.9971 14.3207 11.9482H14.4359C15.4058 11.9482 16.1254 12.5484 16.1254 14.0615V19.207H19.1752L19.1996 13.3711C19.1996 10.483 17.3332 9.36035 15.4789 9.36035ZM4.88025 19.1992H7.92029V9.59961H4.88025V19.1992ZM6.39978 4.6875C5.45007 4.68761 4.68026 5.45754 4.68005 6.40723C4.68005 7.35709 5.44994 8.12782 6.39978 8.12793C7.34971 8.12793 8.11951 7.35716 8.11951 6.40723C8.1193 5.45747 7.34958 4.6875 6.39978 4.6875Z" fill="#F3F3F3"/>
</svg>
