<svg width="24" height="24" viewBox="0 0 24 24" fill="none" xmlns="http://www.w3.org/2000/svg">
<path d="M11.999 0.400391C18.4057 0.400441 23.5994 5.59332 23.5996 12C23.5996 17.1235 20.2796 21.4683 15.6738 23.0059C15.0859 23.119 14.8762 22.7586 14.876 22.4482C14.876 22.068 14.8896 20.8159 14.8896 19.2656C14.8895 18.1835 14.5193 17.4753 14.1035 17.1172C16.687 16.8302 19.3994 15.8498 19.3994 11.3936C19.3994 10.1268 18.9504 9.09231 18.207 8.28125C18.326 7.98786 18.7239 6.80821 18.0908 5.21094C18.0721 5.20515 17.0975 4.91355 14.9043 6.39941C13.9779 6.14236 12.9855 6.01475 12 6.00977C11.014 6.01478 10.0215 6.14244 9.09668 6.39941C6.9076 4.91729 5.93072 5.20373 5.90723 5.21094C5.27558 6.80821 5.67333 7.98786 5.79297 8.28125C5.051 9.09231 4.59866 10.1268 4.59863 11.3936C4.59863 15.8386 7.30709 16.8336 9.88281 17.127C9.55175 17.4167 9.25193 17.9279 9.14648 18.6768C8.48568 18.9737 6.80523 19.4859 5.77051 17.7139C5.77051 17.7139 5.15747 16.5995 3.99316 16.5176C3.97693 16.5174 2.86853 16.5087 3.91406 17.2227C3.92947 17.23 4.67991 17.5935 5.20215 18.9199C5.20365 18.9249 5.88635 21.1755 9.10938 20.4756C9.11507 21.4432 9.125 22.1727 9.125 22.4482C9.12482 22.7558 8.91306 23.1138 8.33301 23.0078C3.72349 21.4732 0.400391 17.1244 0.400391 12C0.400608 5.59328 5.59439 0.400391 11.999 0.400391Z" fill="#F3F3F3"/>
</svg>
