<svg width="24" height="24" viewBox="0 0 24 24" fill="none" xmlns="http://www.w3.org/2000/svg">
<path d="M12 1C14.9873 1 15.3621 1.01265 16.5352 1.06641C17.7059 1.11964 18.5054 1.30545 19.2051 1.57715C19.9391 1.85342 20.6039 2.28699 21.1533 2.84668C21.7128 3.39611 22.1457 4.06097 22.4219 4.79492C22.6938 5.49458 22.8802 6.29403 22.9336 7.46484C22.9871 8.63791 23 9.01271 23 12C23 14.9872 22.9871 15.3621 22.9336 16.5352C22.8802 17.706 22.6938 18.5063 22.4219 19.2061C22.1393 19.9366 21.7072 20.6004 21.1533 21.1543C20.5994 21.7082 19.9356 22.1403 19.2051 22.4229C18.5055 22.6947 17.7059 22.8802 16.5352 22.9336C15.3622 22.9871 14.9872 23 12 23C9.01285 23 8.63805 22.9871 7.46484 22.9336C6.29419 22.8801 5.49457 22.6948 4.79492 22.4229C4.06105 22.1467 3.39607 21.7138 2.84668 21.1543C2.28724 20.6049 1.85433 19.9399 1.57812 19.2061C1.30619 18.5064 1.11985 17.706 1.06641 16.5352C1.01267 15.3623 1 14.9872 1 12C1 9.01268 1.01266 8.6379 1.06641 7.46484C1.11962 6.29421 1.30552 5.49455 1.57715 4.79492C1.85341 4.061 2.2871 3.39606 2.84668 2.84668C3.3961 2.2871 4.06097 1.85336 4.79492 1.57715C5.49452 1.30524 6.29416 1.11986 7.46484 1.06641C8.63788 1.01287 9.01273 1 12 1ZM12 2.69336C9.47231 2.69336 9.15175 2.68714 8.15918 2.73242C7.37929 2.76801 6.48122 2.81475 5.7666 3.03027C5.0519 3.24584 4.49089 3.53966 3.90918 4.1875C3.32755 4.83529 3.14908 5.37201 2.99023 5.89941C2.82501 6.44808 2.77062 7.17633 2.72559 8.16699C2.70286 8.66305 2.69498 8.98959 2.69238 9.50781V14.4932C2.69498 15.0118 2.70284 15.3385 2.72559 15.835C2.77062 16.8257 2.82498 17.5539 2.99023 18.1025C3.14908 18.6299 3.32755 19.1667 3.90918 19.8145C4.49086 20.4622 5.05194 20.7561 5.7666 20.9717C6.48119 21.1872 7.37933 21.233 8.15918 21.2686C9.15175 21.3138 9.47231 21.3086 12 21.3086C14.5276 21.3086 14.8415 21.3199 15.834 21.2744C16.8247 21.2294 17.5529 21.175 18.1016 21.0098C18.6288 20.8509 19.1658 20.6733 19.8135 20.0918C20.4613 19.5101 20.7551 18.9481 20.9707 18.2334C21.1861 17.5188 21.232 16.6206 21.2676 15.8408C21.3129 14.8483 21.3076 14.5294 21.3076 12.002C21.3076 9.47443 21.3128 9.15346 21.2676 8.16113C21.232 7.38111 21.1863 6.48231 20.9707 5.76758C20.7551 5.05285 20.4613 4.49189 19.8135 3.91016C19.1657 3.32846 18.6289 3.15007 18.1016 2.99121C17.5529 2.82594 16.8247 2.7716 15.834 2.72656C14.8415 2.68109 14.5277 2.69336 12 2.69336ZM12 6.84766C14.846 6.84775 17.1532 9.15493 17.1533 12.001C17.1532 14.847 14.846 17.1552 12 17.1553C9.15396 17.1552 6.84683 14.8471 6.84668 12.001C6.84684 9.1549 9.15397 6.8477 12 6.84766ZM12 7.84766C9.7063 7.8477 7.84684 9.70714 7.84668 12.001C7.84683 14.2948 9.70629 16.1552 12 16.1553C14.2937 16.1552 16.1532 14.2948 16.1533 12.001C16.1532 9.70717 14.2937 7.84775 12 7.84766ZM17.8721 4.85938C18.5728 4.85964 19.1406 5.42808 19.1406 6.12891C19.1404 6.82951 18.5726 7.3972 17.8721 7.39746C17.1713 7.39746 16.6028 6.82967 16.6025 6.12891C16.6025 5.42792 17.1711 4.85938 17.8721 4.85938Z" fill="#F3F3F3"/>
</svg>
